<?xml version="1.0" encoding="UTF-8"?>
<svg id="Logo" xmlns="http://www.w3.org/2000/svg" xmlns:xlink="http://www.w3.org/1999/xlink" viewBox="0 0 1024 1024">
  <defs>
    <style>
      .cls-1 {
        fill: url(#linear-gradient-2);
      }

      .cls-2 {
        fill: url(#linear-gradient-5);
      }

      .cls-3 {
        fill: url(#linear-gradient-3);
      }

      .cls-4 {
        fill: url(#linear-gradient);
      }

      .cls-5 {
        fill: url(#linear-gradient-4);
      }
    </style>
    <linearGradient id="linear-gradient" x1="282.42" y1="833.68" x2="831.53" y2="248.99" gradientUnits="userSpaceOnUse">
      <stop offset=".19" stop-color="#c6eff9"/>
      <stop offset=".96" stop-color="#3f7392"/>
    </linearGradient>
    <linearGradient id="linear-gradient-2" x1="463.01" y1="399.24" x2="533.7" y2="483.09" xlink:href="#linear-gradient"/>
    <linearGradient id="linear-gradient-3" x1="558.93" y1="525.76" x2="757.85" y2="761.71" xlink:href="#linear-gradient"/>
    <linearGradient id="linear-gradient-4" x1="67.44" y1="751.51" x2="678.43" y2="137.43" gradientUnits="userSpaceOnUse">
      <stop offset="0" stop-color="#08418b"/>
      <stop offset=".34" stop-color="#2f78b4"/>
      <stop offset=".63" stop-color="#4ba0d3"/>
      <stop offset=".86" stop-color="#5db9e6"/>
      <stop offset="1" stop-color="#64c3ed"/>
    </linearGradient>
    <linearGradient id="linear-gradient-5" x1="148.9" y1="696.1" x2="1028.65" y2="-14.45" gradientUnits="userSpaceOnUse">
      <stop offset="0" stop-color="#64c3ed"/>
      <stop offset=".11" stop-color="#59b4e1"/>
      <stop offset=".33" stop-color="#3e8dc4"/>
      <stop offset=".63" stop-color="#124f95"/>
      <stop offset=".69" stop-color="#08418b"/>
    </linearGradient>
  </defs>
  <g id="Complied_Logo_-_Dark_Mode" data-name="Complied Logo - Dark Mode">
    <g id="Logo-2" data-name="Logo">
      <g id="Shapes">
        <path class="cls-4" d="M738.14,671.24c-.08,11.94-1.4,23.56-3.83,34.74-.08,.33-.14,.66-.22,.99-15.59,72.17-77.41,134.63-154.09,138.11-.89,.04-1.78,.08-2.67,.1-.11,0-.21,.01-.32,.01-1.4,.03-2.82,.05-4.21,.05-.88,0-1.77,0-2.64-.03-.87-.01-1.73-.02-2.6-.07h-.24c-42.33-.97-81.92-13.07-115.9-33.53-1.26-.76-2.52-1.54-3.77-2.32-60.05-37.7-97.17-102.66-101.17-172.99-.24-4.21-.36-8.44-.36-12.67v-209.2c.05-4.21,.34-8.36,.87-12.45,6.52-50.51,48.94-89.92,100.76-91.71v87.76l-.25,.14v121.07s-.01,90.4-.01,90.4c0,14.96,2.62,29.62,7.79,43.56l2.52,6.82,.54-.03c.16,.36,.32,.71,.48,1.08,20.09,44.33,64.86,73.55,113.99,73.55,68.97,0,125.09-56.11,125.09-125.09,0-22.52-5.97-44.25-17.14-63.27-.58-1-1.19-2-1.8-2.98,.46,.38,.92,.78,1.37,1.17,.15,.24,.29,.47,.43,.71,35.78,31.13,57.13,76.85,57.13,124.97,0,11.94-1.23,23.56-3.58,34.75,2.36-10.84,3.66-22.09,3.83-33.64Z"/>
        <path class="cls-1" d="M556.78,414.42c0,52.03-37.16,95.73-88.41,103.99h-.04s-.07,.02-.07,.02c-.26,.01-.53,.04-.79,.08-3.17,.31-6.4,.53-9.88,.65v-115.36c3.26-1.81,6.55-3.56,9.89-5.22,25.01-12.48,52.56-20.64,81.66-23.5,4.93,12.16,7.64,25.45,7.64,39.35Z"/>
        <path class="cls-3" d="M808.26,609.63c0,90.7-51.22,169.42-126.31,208.82-31.44,16.51-67.06,26.13-104.88,26.84,81.79-2.07,149.65-60.2,166.6-137.4,.08-.34,.15-.68,.22-1.02,2.7-12.22,4.13-24.92,4.13-37.95,0-60.25-30.41-113.4-76.73-144.93,1.49-2.98,2.92-6,4.28-9.03,14.24-31.63,21.45-65.4,21.45-100.54,0-1.66-.02-3.34-.05-5.04,66.83,41.61,111.31,115.74,111.3,200.25Z"/>
        <path class="cls-5" d="M616.78,353.93c0,4.67-.2,9.35-.59,13.98-.27,3.3-.65,6.59-1.12,9.84-.02,.18-.05,.36-.08,.54-6.43,43.63-30.72,83.58-66.64,109.61-6.51,4.73-13.3,8.93-20.33,12.61,23.71-21.1,38.63-51.85,38.63-86.08,0-14.12-2.53-27.64-7.19-40.14-1.22-3.29-2.59-6.51-4.09-9.65-16.38-34.14-49.09-58.96-88.01-64.33-3.27-.46-6.58-.77-9.94-.94-1.99-.1-3.98-.15-5.99-.15-1.31,0-2.6,.02-3.9,.07-44.58,1.48-82.74,28.3-100.56,66.51h0c-4.99,10.7-8.38,22.29-9.88,34.45-.57,4.64-.87,9.38-.87,14.19v302.55c0,66.55-53.96,120.5-120.49,120.5V414.42c0-84.6,44.56-158.79,111.5-200.37,.92-.58,1.87-1.15,2.8-1.71,2.34-1.4,4.7-2.78,7.08-4.09l-.02,6.27h.02v-6.27c12.84-7.14,26.41-13.1,40.59-17.76,21.54-7.08,44.46-11.14,68.24-11.67h.04c.9-.03,1.8-.05,2.7-.07,.91-.03,1.83-.03,2.74-.03,1.5,0,3.02,.02,4.51,.07h.02c.47,.01,.95,.03,1.44,.04,.43,.02,.86,.03,1.29,.05,2.08,.09,4.16,.22,6.22,.39,1.2,.1,2.4,.22,3.6,.35,.99,.11,1.98,.22,2.96,.35,.54,.08,1.09,.14,1.62,.23,.46,.05,.91,.12,1.36,.19,.69,.11,1.37,.21,2.06,.33,.88,.14,1.76,.29,2.63,.45,1,.19,2.01,.38,3,.58,1,.21,2,.42,2.98,.64,.66,.14,1.32,.31,1.98,.46,.94,.22,1.88,.45,2.81,.69,.23,.05,.46,.12,.69,.18,.79,.22,1.58,.43,2.37,.65,.97,.27,1.93,.56,2.9,.86,.97,.29,1.92,.58,2.87,.9,.64,.21,1.27,.42,1.91,.64,.64,.22,1.26,.44,1.9,.66,1.89,.67,3.76,1.37,5.62,2.11,.63,.24,1.24,.49,1.85,.76,.66,.27,1.32,.55,1.98,.82,.72,.32,1.45,.63,2.16,.95,.68,.31,1.36,.61,2.04,.93,1.36,.64,2.71,1.28,4.05,1.95,1,.5,2.01,1.02,3,1.54,.99,.53,1.98,1.05,2.96,1.6,.88,.48,1.73,.98,2.6,1.47,.87,.5,1.72,1.01,2.58,1.51,.57,.34,1.14,.69,1.7,1.04,1.12,.7,2.25,1.42,3.36,2.14,1.67,1.1,3.31,2.22,4.95,3.37,.55,.37,1.09,.77,1.62,1.16,.87,.64,1.73,1.27,2.6,1.92,.38,.29,.77,.58,1.15,.88,.34,.26,.68,.53,1.03,.8,1.04,.81,2.08,1.65,3.12,2.49,1.03,.84,2.05,1.7,3.06,2.57,.5,.43,1.01,.87,1.51,1.31,.49,.44,1,.89,1.49,1.33,1.48,1.33,2.95,2.69,4.39,4.09,.69,.67,1.37,1.34,2.05,2.01,.68,.68,1.36,1.36,2.03,2.05,.07,.05,.12,.12,.18,.19,1.87,1.92,3.68,3.88,5.45,5.89,.89,1,1.77,2.01,2.63,3.04,1.25,1.48,2.47,2.97,3.69,4.5,.04,.05,.09,.11,.13,.18,1.24,1.58,2.47,3.18,3.66,4.81,.91,1.23,1.8,2.47,2.68,3.73,.27,.39,.56,.8,.83,1.21,.38,.55,.76,1.11,1.13,1.67,.37,.56,.75,1.12,1.12,1.68,.75,1.13,1.47,2.27,2.18,3.41,.68,1.1,1.35,2.19,2.01,3.3,.03,.05,.07,.1,.09,.15,.35,.58,.69,1.16,1.03,1.76,.34,.58,.67,1.16,1,1.76,.34,.59,.67,1.19,.99,1.78,.49,.89,.98,1.78,1.45,2.68,2.36,4.44,4.52,9,6.51,13.64,.26,.63,.54,1.25,.79,1.89,.15,.35,.3,.7,.44,1.06,.19,.45,.36,.9,.55,1.36,.45,1.12,.89,2.25,1.31,3.39,.37,.99,.74,1.99,1.09,2.98,.19,.5,.36,1,.53,1.49,.59,1.69,1.15,3.39,1.68,5.1,.29,.9,.56,1.8,.82,2.7,.29,.94,.55,1.89,.81,2.83,.14,.47,.27,.95,.39,1.44,.13,.48,.25,.97,.38,1.45,.02,.08,.04,.14,.05,.22,.29,1.09,.55,2.16,.81,3.25,.21,.86,.41,1.7,.59,2.56,.26,1.16,.5,2.33,.75,3.49,.72,3.56,1.34,7.14,1.84,10.75,.09,.65,.18,1.31,.26,1.95,.12,.88,.22,1.77,.32,2.64,.07,.6,.13,1.21,.2,1.81,.26,2.5,.47,5,.61,7.52,.04,.81,.09,1.62,.13,2.44,.03,.74,.07,1.47,.09,2.21,.07,1.94,.1,3.88,.1,5.83Z"/>
        <path class="cls-2" d="M662.4,519.68c.18-.35,.35-.7,.52-1.05,1.47-2.96,2.86-5.96,4.2-8.99,12.88-29.12,20.03-61.34,20.03-95.22,0-3.68-.09-7.34-.25-10.97-.18-3.91-.45-7.8-.82-11.65-7.54-79.22-54.3-147.01-120.64-183.73-.01-.01-.02-.02-.03-.02-25.72-14.24-54.41-23.79-84.89-27.51-6.66-.81-13.41-1.35-20.24-1.6,.69,.03,1.39,.08,2.08,.12h.09c.98,.05,1.95,.13,2.92,.21,.72,.05,1.45,.11,2.16,.18,1.19,.11,2.35,.23,3.52,.36,.98,.11,1.95,.22,2.93,.35,.82,.1,1.63,.21,2.46,.33,.53,.08,1.05,.15,1.58,.23,1.99,.31,3.96,.64,5.91,1.01,.63,.11,1.25,.23,1.87,.36,.45,.09,.9,.18,1.35,.27,1.22,.24,2.44,.52,3.64,.79,.79,.18,1.57,.36,2.35,.56,.92,.22,1.84,.45,2.77,.69,.64,.16,1.27,.34,1.9,.52,.78,.21,1.55,.42,2.32,.65,.67,.19,1.34,.38,2.01,.59,.67,.2,1.33,.41,1.99,.61,.98,.3,1.94,.61,2.9,.93,1.19,.39,2.35,.8,3.52,1.22,1.02,.36,2.04,.75,3.06,1.13,.09,.03,.16,.07,.25,.1,2,.76,10.33,4.3,12.49,5.32,.92,.44,1.84,.88,2.77,1.34,.61,.3,1.22,.6,1.83,.92,2.45,1.24,4.85,2.55,7.23,3.91,.54,.31,1.09,.61,1.62,.93,1,.58,1.99,1.17,2.97,1.78,.94,.58,1.88,1.16,2.81,1.76,1.11,.71,2.21,1.43,3.29,2.15,.71,.48,1.42,.97,2.12,1.45,8.56,5.91,16.56,12.56,23.91,19.87,.49,.47,.98,.97,1.45,1.45,.48,.49,.97,.98,1.43,1.47,.71,.74,1.4,1.48,2.11,2.23,.7,.75,1.38,1.51,2.07,2.27,2.28,2.55,4.49,5.15,6.62,7.82,.86,1.08,1.69,2.15,2.51,3.24,.83,1.1,1.65,2.19,2.45,3.3,1.21,1.66,2.38,3.35,3.52,5.06,.4,.57,.77,1.14,1.14,1.71,.38,.57,.76,1.15,1.11,1.72,2.22,3.47,4.31,7.02,6.28,10.65,.32,.58,.63,1.16,.93,1.74,2.27,4.29,4.36,8.68,6.27,13.18,.29,.64,.55,1.28,.81,1.92,1.84,4.49,3.51,9.07,4.98,13.74l.39,1.28c.19,.58,.36,1.16,.53,1.74,.24,.79,.46,1.58,.68,2.37,.84,2.98,1.6,6,2.28,9.05,.15,.69,.31,1.37,.45,2.06,.22,1.03,.43,2.06,.63,3.11,.07,.34,.13,.69,.2,1.04,.19,.99,.36,2,.53,3,.11,.64,.22,1.28,.31,1.92,.13,.82,.26,1.65,.37,2.47,.12,.82,.23,1.65,.33,2.48,.09,.65,.16,1.29,.24,1.95,.23,1.95,.43,3.92,.58,5.89,.07,.74,.12,1.47,.16,2.21,.13,1.88,.23,3.76,.31,5.67,.02,.72,.05,1.45,.07,2.18,.03,1.47,.05,2.94,.05,4.41,0,1.03-.01,2.06-.03,3.08-.01,1.15-.04,2.32-.09,3.47-.03,.89-.07,1.79-.12,2.68-.05,1.14-.12,2.27-.21,3.4-.03,.44-.05,.88-.1,1.31-.01,.2-.03,.41-.05,.6,0,.07,0,.12-.01,.18-.03,.41-.07,.82-.1,1.23h-.01c0,.1-.01,.2-.02,.31-.09,1.02-.2,2.04-.31,3.06-.02,.15-.03,.31-.05,.46-.22,2.02-.48,4.03-.78,6.02-.33,2.24-.7,4.45-1.12,6.66-.14,.74-.29,1.47-.43,2.21-.37,1.82-.77,3.64-1.18,5.45-.42,1.81-.87,3.61-1.36,5.4-.19,.71-.38,1.43-.58,2.14-.21,.71-.41,1.43-.61,2.13-.22,.71-.43,1.42-.65,2.12-.44,1.4-.89,2.81-1.36,4.2-.23,.69-.47,1.39-.71,2.08-.04,.11-.09,.23-.12,.35-.45,1.26-.91,2.51-1.38,3.76-.53,1.37-1.06,2.73-1.62,4.09-.42,1.01-.83,2.02-1.27,3.03-.44,1.01-.88,2-1.33,3-.6,1.33-1.22,2.64-1.85,3.95s-1.28,2.61-1.95,3.9c-2,3.87-4.13,7.65-6.4,11.35-.35,.57-.7,1.13-1.05,1.7-1.96,3.09-4.02,6.13-6.14,9.1-.43,.59-.84,1.17-1.28,1.74-.86,1.16-1.72,2.3-2.61,3.45-.44,.57-.89,1.13-1.34,1.69-.45,.57-.9,1.13-1.35,1.68-.92,1.12-1.84,2.22-2.78,3.3-.35,.41-.7,.81-1.04,1.21-1.1,1.24-2.21,2.47-3.31,3.68-.9,.97-1.8,1.92-2.71,2.85-.58,.59-1.15,1.17-1.73,1.76-.5,.5-1.02,1.01-1.54,1.51-.5,.5-1.03,1.01-1.55,1.5-.45,.43-.9,.86-1.36,1.28-.95,.89-1.91,1.77-2.89,2.63h-.01s-.01,.01-.02,.01c-.15,.15-.33,.31-.48,.45-.54,.47-1.08,.94-1.62,1.42-.54,.47-1.09,.94-1.63,1.4-.69,.57-1.37,1.14-2.06,1.71-.43,.34-.84,.69-1.27,1.03-.66,.53-1.32,1.04-1.99,1.56-.47,.37-.94,.74-1.42,1.1-1.14,.88-2.3,1.73-3.47,2.58-.02,.01-.03,.02-.05,.04-1.05,.77-2.13,1.53-3.2,2.26-1.1,.76-2.19,1.5-3.31,2.24-.8,.53-1.61,1.05-2.42,1.57l-1.68,1.05c-.75,.46-1.5,.92-2.26,1.37-.37,.22-.75,.45-1.13,.67-.87,.52-1.74,1.02-2.62,1.51-.08,.04-.15,.09-.23,.13-.95,.54-1.92,1.08-2.9,1.59-.38,.22-.78,.43-1.17,.63-.01,.01-.02,.01-.03,.02-.93,.49-1.88,.99-2.83,1.46-.02,.01-.04,.02-.07,.03-.79,.41-1.59,.8-2.39,1.19-.18,.09-.35,.18-.53,.25-.42,.21-.84,.41-1.26,.6-1.2,.57-2.41,1.12-3.63,1.66-.6,.27-1.22,.54-1.83,.8-.6,.26-1.22,.53-1.83,.78-.61,.26-1.24,.52-1.85,.76-.61,.25-1.24,.5-1.87,.74-2.29,.9-4.62,1.74-6.96,2.55-1.82,.63-3.65,1.22-5.5,1.77-1.13,.35-2.26,.68-3.4,1-.99,.29-2,.56-3,.82,0,.01-.01,.01-.01,.01-1.08,.27-2.15,.55-3.23,.81-1,.24-2,.47-3,.7-.09,.02-.18,.03-.26,.05-1.05,.23-2.1,.46-3.15,.67-.19,.04-.38,.08-.58,.12-.9,.18-1.8,.35-2.71,.52-.13,.03-.27,.05-.41,.08-.98,.18-1.95,.35-2.94,.5-.04,.01-.09,.02-.14,.02-1.11,.19-2.23,.35-3.35,.52-1.09,.15-2.17,.3-3.26,.44-1.08,.13-2.15,.25-3.24,.36-.09,.01-.18,.02-.26,.03-.09,.01-.18,.03-.26,.03-.64,.11-1.27,.21-1.92,.29-3.25,.46-6.54,.78-9.88,.95v78.95c0,.41,0,.8,.01,1.21,.13,13.67,2.66,26.77,7.17,38.92,.14,.39,.3,.78,.44,1.16,3.46-.2,6.89-.46,10.31-.82,74.44-7.52,138.65-49.73,176.23-110.2,1.65-2.62,3.23-5.28,4.75-7.97m-98.75-25.28c-.76,.07-1.53,.14-2.28,.22l.12-.02,.5-.05,.22-.05c.55-.09,1.1-.16,1.65-.23-.07,.05-.14,.11-.21,.14Z"/>
      </g>
    </g>
  </g>
</svg>